<svg id="svg" xmlns="http://www.w3.org/2000/svg" xmlns:xlink="http://www.w3.org/1999/xlink" width="400" height="148" viewBox="0, 0, 400,148"><g id="svgg"><path id="path0" d="M331.518 20.664 C 331.023 20.740,330.461 20.878,330.268 20.969 C 330.075 21.061,329.579 21.259,329.167 21.410 C 327.561 21.998,325.108 24.074,324.416 25.432 C 324.233 25.790,324.003 26.136,323.904 26.201 C 323.805 26.265,323.592 26.790,323.430 27.367 C 323.268 27.944,323.076 28.534,323.003 28.677 C 322.930 28.820,322.705 29.982,322.503 31.260 C 322.301 32.538,322.072 33.733,321.994 33.917 C 321.402 35.306,321.017 39.761,321.350 41.367 C 321.709 43.096,323.286 45.038,324.789 45.602 C 325.226 45.766,325.637 45.978,325.702 46.075 C 325.883 46.341,330.369 46.310,330.458 46.042 C 330.497 45.927,330.628 45.833,330.750 45.833 C 331.037 45.833,332.550 45.186,332.663 45.014 C 332.711 44.942,332.843 44.853,332.957 44.817 C 333.338 44.694,335.117 43.091,335.520 42.508 C 335.738 42.192,336.085 41.750,336.292 41.525 C 336.498 41.301,336.667 41.022,336.667 40.904 C 336.667 40.787,336.760 40.591,336.875 40.470 C 337.168 40.160,337.599 39.188,337.749 38.499 C 337.818 38.179,337.937 37.877,338.013 37.828 C 338.089 37.780,338.202 37.424,338.263 37.037 L 338.376 36.333 336.033 36.333 L 333.691 36.333 333.484 37.257 C 333.370 37.765,333.140 38.339,332.972 38.532 C 332.804 38.726,332.667 38.952,332.667 39.035 C 332.667 39.354,330.886 41.062,330.250 41.353 C 328.004 42.384,325.718 40.897,325.779 38.447 C 325.795 37.808,325.877 37.240,325.960 37.184 C 326.044 37.129,326.285 35.996,326.497 34.667 C 326.709 33.337,326.937 32.175,327.003 32.083 C 327.070 31.992,327.213 31.279,327.321 30.500 C 327.617 28.360,327.781 27.967,328.846 26.858 C 330.969 24.645,334.075 24.842,334.669 27.226 C 334.764 27.606,334.914 28.047,335.004 28.206 C 335.216 28.584,335.214 29.618,335.000 29.750 C 334.908 29.807,334.833 30.036,334.833 30.260 L 334.833 30.667 337.145 30.667 L 339.456 30.667 339.560 30.042 C 340.526 24.193,336.798 19.846,331.518 20.664 M351.277 20.668 C 350.742 20.736,350.142 20.869,349.944 20.963 C 349.746 21.057,349.115 21.301,348.542 21.504 C 347.969 21.708,347.500 21.935,347.500 22.009 C 347.500 22.083,347.337 22.196,347.138 22.259 C 346.638 22.418,344.551 24.474,344.317 25.039 C 344.212 25.292,344.069 25.500,344.000 25.500 C 343.931 25.500,343.709 25.969,343.507 26.542 C 343.305 27.115,343.073 27.710,342.991 27.866 C 342.909 28.021,342.686 29.108,342.494 30.282 C 342.303 31.456,342.082 32.567,342.003 32.750 C 341.925 32.933,341.693 34.133,341.487 35.417 C 341.282 36.700,341.051 37.821,340.974 37.908 C 340.799 38.106,340.786 41.500,340.961 41.500 C 341.031 41.500,341.178 41.881,341.289 42.346 C 341.480 43.153,342.647 44.833,343.016 44.833 C 343.099 44.833,343.299 44.965,343.460 45.127 C 343.622 45.288,344.090 45.529,344.502 45.662 C 344.913 45.794,345.304 45.981,345.369 46.076 C 345.539 46.324,350.640 46.311,350.798 46.063 C 350.863 45.960,351.179 45.818,351.499 45.749 C 352.245 45.587,353.160 45.165,353.573 44.792 C 353.751 44.631,353.990 44.500,354.105 44.500 C 354.220 44.500,354.426 44.341,354.562 44.146 C 354.699 43.952,354.977 43.708,355.180 43.604 C 355.384 43.501,355.633 43.268,355.734 43.086 C 355.834 42.904,356.048 42.656,356.208 42.535 C 356.369 42.414,356.500 42.220,356.500 42.105 C 356.500 41.990,356.650 41.735,356.833 41.539 C 357.206 41.139,357.833 39.655,357.833 39.174 C 357.833 39.002,357.904 38.836,357.990 38.806 C 358.150 38.749,358.833 35.074,358.833 34.273 C 358.833 34.031,358.894 33.833,358.969 33.833 C 359.044 33.833,359.283 32.708,359.500 31.333 C 359.717 29.958,359.956 28.833,360.031 28.833 C 360.106 28.833,360.167 28.083,360.167 27.167 C 360.167 26.167,360.100 25.500,360.000 25.500 C 359.908 25.500,359.833 25.377,359.833 25.228 C 359.833 23.924,358.104 21.801,356.667 21.338 C 356.254 21.206,355.875 21.038,355.823 20.965 C 355.586 20.629,352.936 20.456,351.277 20.668 M371.542 20.699 C 371.060 20.787,370.667 20.922,370.667 20.999 C 370.667 21.077,370.447 21.188,370.178 21.248 C 369.909 21.307,369.351 21.653,368.937 22.017 L 368.185 22.679 368.134 21.798 L 368.083 20.917 366.225 20.870 L 364.366 20.823 364.246 21.696 C 364.180 22.177,364.065 22.686,363.991 22.827 C 363.918 22.968,363.697 24.096,363.501 25.333 C 363.305 26.571,363.077 27.733,362.995 27.917 C 362.913 28.100,362.682 29.337,362.481 30.667 C 362.280 31.996,362.065 33.121,362.002 33.167 C 361.939 33.212,361.715 34.337,361.503 35.667 C 361.291 36.996,361.065 38.158,361.000 38.250 C 360.935 38.342,360.709 39.504,360.497 40.833 C 360.285 42.162,360.062 43.288,360.001 43.333 C 359.902 43.407,359.500 45.539,359.500 45.990 C 359.500 46.106,360.304 46.167,361.833 46.167 C 363.117 46.167,364.167 46.119,364.167 46.060 C 364.167 45.605,364.910 41.399,365.002 41.333 C 365.067 41.287,365.293 40.125,365.504 38.750 C 365.716 37.375,365.939 36.212,366.001 36.167 C 366.062 36.121,366.285 34.996,366.497 33.667 C 366.709 32.337,366.937 31.175,367.004 31.083 C 367.071 30.992,367.179 30.476,367.244 29.938 C 367.399 28.659,367.700 27.833,368.229 27.235 C 369.080 26.276,369.567 25.881,370.288 25.568 C 372.211 24.735,374.833 25.797,374.833 27.408 C 374.833 27.550,374.908 27.667,375.000 27.667 C 375.210 27.667,375.218 28.409,375.012 28.794 C 374.927 28.953,374.697 30.096,374.501 31.333 C 374.305 32.571,374.077 33.733,373.995 33.917 C 373.913 34.100,373.682 35.337,373.481 36.667 C 373.280 37.996,373.064 39.121,373.000 39.167 C 372.936 39.212,372.707 40.375,372.491 41.750 C 372.275 43.125,372.047 44.288,371.986 44.333 C 371.924 44.379,371.820 44.810,371.755 45.292 L 371.635 46.167 373.966 46.167 L 376.297 46.167 376.591 44.208 C 376.752 43.131,376.935 42.212,376.997 42.167 C 377.059 42.121,377.276 41.033,377.480 39.750 C 377.684 38.467,377.915 37.267,377.994 37.083 C 378.073 36.900,378.307 35.662,378.513 34.333 C 378.719 33.004,378.939 31.879,379.001 31.833 C 379.063 31.787,379.206 31.150,379.319 30.417 C 379.690 28.016,379.768 27.839,381.072 26.473 C 382.544 24.932,385.592 24.708,386.543 26.071 C 386.740 26.353,386.979 26.637,387.075 26.703 C 387.297 26.854,387.279 29.491,387.055 29.640 C 386.965 29.701,386.724 30.800,386.520 32.083 C 386.316 33.367,386.085 34.567,386.006 34.750 C 385.927 34.933,385.701 36.096,385.504 37.333 C 385.306 38.571,385.077 39.733,384.995 39.917 C 384.913 40.100,384.682 41.337,384.481 42.667 C 384.280 43.996,384.046 45.129,383.960 45.186 C 383.874 45.242,383.829 45.467,383.860 45.686 C 383.916 46.080,383.936 46.084,386.181 46.130 L 388.445 46.176 388.662 44.715 C 388.782 43.912,388.939 43.141,389.012 43.002 C 389.084 42.864,389.311 41.662,389.516 40.333 C 389.720 39.004,389.940 37.879,390.003 37.833 C 390.066 37.787,390.290 36.625,390.500 35.250 C 390.710 33.875,390.935 32.712,390.999 32.667 C 391.160 32.552,391.834 28.213,391.830 27.315 C 391.819 24.511,389.698 21.167,387.931 21.167 C 387.801 21.167,387.668 21.087,387.635 20.989 C 387.471 20.497,382.688 20.479,382.341 20.968 C 382.291 21.039,381.912 21.205,381.500 21.338 C 381.087 21.470,380.591 21.748,380.398 21.956 C 380.204 22.163,379.976 22.333,379.891 22.333 C 379.718 22.333,378.478 23.758,378.303 24.158 C 378.219 24.351,378.187 24.321,378.178 24.042 C 378.172 23.835,378.097 23.667,378.013 23.667 C 377.928 23.667,377.777 23.419,377.678 23.116 C 377.466 22.476,376.347 21.385,375.747 21.234 C 375.519 21.177,375.333 21.071,375.333 20.999 C 375.333 20.634,372.940 20.444,371.542 20.699 M353.453 25.435 C 354.346 25.736,355.178 26.591,355.370 27.407 C 355.492 27.925,355.195 30.514,354.996 30.667 C 354.937 30.712,354.715 31.837,354.503 33.167 C 354.291 34.496,354.062 35.658,353.994 35.750 C 353.926 35.842,353.815 36.329,353.748 36.833 C 353.481 38.819,352.985 39.731,351.571 40.833 C 349.542 42.414,345.977 41.573,345.572 39.417 C 345.451 38.769,345.798 35.833,345.996 35.833 C 346.059 35.833,346.286 34.671,346.500 33.250 C 346.714 31.829,346.942 30.667,347.006 30.667 C 347.071 30.667,347.175 30.273,347.237 29.792 C 347.670 26.453,350.527 24.451,353.453 25.435 M219.583 25.442 C 218.018 25.524,215.425 25.855,215.333 25.984 C 215.287 26.049,214.612 26.236,213.833 26.400 C 213.054 26.564,212.117 26.832,211.750 26.995 C 211.383 27.158,210.690 27.419,210.208 27.575 C 209.727 27.732,209.333 27.913,209.333 27.977 C 209.333 28.041,208.953 28.241,208.489 28.421 C 208.024 28.601,207.525 28.880,207.379 29.041 C 207.234 29.202,207.022 29.333,206.908 29.333 C 206.727 29.333,206.031 29.803,204.515 30.947 C 203.806 31.482,200.754 34.566,200.427 35.079 C 200.253 35.352,200.044 35.652,199.963 35.746 C 199.557 36.218,198.515 37.992,198.321 38.542 C 198.199 38.885,198.043 39.167,197.973 39.167 C 197.904 39.167,197.692 39.667,197.503 40.279 C 197.314 40.890,197.097 41.472,197.021 41.570 C 196.849 41.793,196.399 43.630,196.242 44.750 C 196.177 45.208,196.070 45.658,196.003 45.750 C 195.937 45.842,195.710 47.004,195.500 48.333 C 195.290 49.663,195.064 50.825,194.997 50.917 C 194.930 51.008,194.704 52.208,194.493 53.583 C 194.283 54.958,194.061 56.121,193.999 56.167 C 193.938 56.212,193.715 57.337,193.503 58.667 C 193.291 59.996,193.065 61.158,193.000 61.250 C 192.935 61.342,192.709 62.504,192.497 63.833 C 192.285 65.162,192.060 66.287,191.997 66.333 C 191.934 66.379,191.710 67.542,191.500 68.917 C 191.290 70.292,191.067 71.454,191.004 71.500 C 190.942 71.546,190.724 72.633,190.520 73.917 C 190.316 75.200,190.083 76.400,190.001 76.583 C 189.919 76.767,189.694 77.929,189.500 79.167 C 189.306 80.404,189.080 81.567,188.997 81.750 C 188.914 81.933,188.689 83.096,188.497 84.333 C 188.304 85.571,188.058 86.763,187.949 86.984 C 187.685 87.515,187.670 93.626,187.932 93.798 C 188.031 93.863,188.207 94.401,188.322 94.992 C 188.813 97.527,191.206 100.939,193.567 102.473 C 193.943 102.717,194.340 103.001,194.450 103.105 C 194.561 103.209,194.992 103.434,195.408 103.605 C 195.825 103.777,196.166 103.967,196.166 104.028 C 196.166 104.089,196.710 104.305,197.375 104.508 C 198.040 104.711,198.658 104.934,198.750 105.004 C 200.087 106.026,211.634 106.021,213.473 104.997 C 213.625 104.912,214.313 104.683,215.000 104.487 C 215.688 104.292,216.333 104.064,216.435 103.982 C 216.536 103.899,217.058 103.681,217.593 103.497 C 218.129 103.312,218.608 103.101,218.658 103.028 C 218.709 102.954,219.100 102.726,219.528 102.522 C 219.956 102.317,220.397 102.041,220.507 101.908 C 220.617 101.775,220.800 101.667,220.913 101.667 C 221.026 101.667,221.320 101.479,221.568 101.250 C 221.815 101.021,222.061 100.833,222.116 100.833 C 222.701 100.833,227.328 96.003,227.697 95.007 C 227.766 94.820,227.882 94.667,227.955 94.667 C 228.028 94.667,228.273 94.273,228.498 93.792 C 228.724 93.310,228.986 92.836,229.079 92.737 C 229.173 92.638,229.397 92.113,229.577 91.570 C 229.757 91.027,229.950 90.546,230.006 90.500 C 230.140 90.390,230.610 88.617,230.758 87.667 C 230.822 87.254,230.925 86.879,230.986 86.833 C 231.048 86.787,231.275 85.625,231.491 84.250 C 231.707 82.875,231.937 81.712,232.002 81.667 C 232.067 81.621,232.293 80.458,232.504 79.083 C 232.716 77.708,232.939 76.546,232.999 76.500 C 233.060 76.454,233.276 75.367,233.480 74.083 C 233.684 72.800,233.917 71.600,233.998 71.417 C 234.576 70.113,234.861 65.258,234.430 64.039 C 234.034 62.915,233.079 61.899,231.770 61.209 L 230.917 60.759 222.599 60.707 L 214.281 60.655 213.820 61.096 C 213.486 61.416,213.328 61.772,213.243 62.394 C 213.179 62.865,213.072 63.288,213.005 63.333 C 212.856 63.437,212.167 67.731,212.167 68.562 C 212.167 69.014,212.299 69.308,212.683 69.710 L 213.199 70.250 218.264 70.301 L 223.330 70.351 223.748 70.900 C 224.146 71.421,224.335 72.500,224.029 72.500 C 223.953 72.500,223.716 73.644,223.502 75.042 C 223.288 76.440,223.063 77.621,223.002 77.667 C 222.941 77.712,222.724 78.800,222.520 80.083 C 222.316 81.367,222.085 82.567,222.006 82.750 C 221.927 82.933,221.696 84.096,221.492 85.333 C 221.288 86.571,221.075 87.621,221.018 87.667 C 220.961 87.712,220.815 88.050,220.692 88.417 C 220.226 89.813,217.515 93.333,216.906 93.333 C 216.849 93.333,216.568 93.502,216.282 93.708 C 215.315 94.406,213.271 95.327,212.091 95.596 C 211.445 95.743,210.736 95.951,210.516 96.057 C 210.006 96.303,205.032 96.314,204.866 96.069 C 204.802 95.976,204.129 95.735,203.370 95.535 C 202.611 95.335,201.828 95.020,201.630 94.835 C 201.432 94.651,201.177 94.500,201.063 94.500 C 200.611 94.500,198.738 92.409,198.211 91.317 C 197.419 89.674,197.319 86.790,198.000 85.250 C 198.081 85.067,198.306 83.904,198.500 82.667 C 198.694 81.429,198.920 80.267,199.003 80.083 C 199.086 79.900,199.318 78.662,199.519 77.333 C 199.720 76.004,199.936 74.879,200.000 74.833 C 200.064 74.787,200.293 73.625,200.509 72.250 C 200.725 70.875,200.949 69.712,201.007 69.667 C 201.065 69.621,201.287 68.496,201.500 67.167 C 201.713 65.837,201.938 64.712,201.999 64.667 C 202.061 64.621,202.284 63.458,202.496 62.083 C 202.707 60.708,202.933 59.546,202.998 59.500 C 203.063 59.454,203.293 58.292,203.509 56.917 C 203.725 55.542,203.949 54.379,204.007 54.333 C 204.065 54.288,204.285 53.163,204.497 51.833 C 204.709 50.504,204.937 49.342,205.005 49.250 C 205.072 49.158,205.293 48.033,205.496 46.750 C 205.699 45.467,205.924 44.342,205.997 44.250 C 206.069 44.158,206.184 43.821,206.253 43.501 C 206.380 42.906,206.835 41.817,207.018 41.667 C 207.074 41.621,207.242 41.345,207.392 41.053 C 207.825 40.207,210.047 38.081,211.131 37.474 C 211.472 37.284,211.787 37.073,211.833 37.005 C 211.879 36.938,212.367 36.718,212.917 36.518 C 213.467 36.317,214.156 36.042,214.448 35.907 C 216.382 35.012,223.033 35.069,223.667 35.986 C 223.713 36.052,224.100 36.273,224.527 36.477 C 224.954 36.682,225.346 36.959,225.398 37.093 C 225.449 37.228,225.682 37.411,225.915 37.500 C 226.149 37.588,226.409 37.843,226.494 38.067 C 226.579 38.290,226.758 38.535,226.893 38.612 C 227.899 39.181,228.983 43.188,228.741 45.446 C 228.605 46.709,229.037 47.616,229.852 47.779 C 230.117 47.832,230.333 47.941,230.333 48.021 C 230.333 48.101,231.796 48.167,233.583 48.167 C 235.639 48.167,236.833 48.105,236.833 48.000 C 236.833 47.908,237.002 47.833,237.208 47.833 C 238.464 47.830,238.998 45.638,238.750 41.500 C 238.634 39.552,238.214 36.801,238.012 36.669 C 237.941 36.622,237.715 36.040,237.510 35.375 C 237.306 34.710,237.088 34.167,237.027 34.167 C 236.965 34.167,236.743 33.792,236.532 33.333 C 236.322 32.875,236.091 32.500,236.018 32.500 C 235.946 32.500,235.802 32.313,235.697 32.084 C 235.470 31.585,233.168 29.167,232.921 29.167 C 232.825 29.167,232.653 29.017,232.539 28.833 C 232.424 28.650,232.233 28.500,232.113 28.500 C 231.994 28.500,231.751 28.365,231.573 28.201 C 231.209 27.864,229.833 27.167,229.531 27.167 C 229.422 27.167,229.333 27.102,229.333 27.023 C 229.333 26.869,227.254 26.167,226.797 26.167 C 226.644 26.167,226.479 26.101,226.430 26.021 C 226.225 25.691,221.868 25.322,219.583 25.442 M115.417 26.270 C 114.440 26.518,113.500 26.877,113.500 27.002 C 113.500 27.080,113.332 27.198,113.126 27.263 C 112.654 27.413,111.167 28.657,111.167 28.903 C 111.167 29.004,111.024 29.176,110.849 29.285 C 110.674 29.394,110.444 29.749,110.336 30.075 C 110.229 30.400,110.084 30.667,110.013 30.667 C 109.841 30.667,109.557 31.672,109.331 33.083 C 109.229 33.725,109.079 34.400,108.999 34.583 C 108.918 34.767,108.694 35.929,108.500 37.167 C 108.306 38.404,108.080 39.567,107.997 39.750 C 107.914 39.933,107.690 41.096,107.499 42.333 C 107.309 43.571,107.093 44.696,107.020 44.833 C 106.947 44.971,106.709 46.208,106.492 47.583 C 106.275 48.958,106.051 50.121,105.993 50.167 C 105.935 50.212,105.713 51.337,105.500 52.667 C 105.287 53.996,105.062 55.121,105.001 55.167 C 104.939 55.212,104.716 56.375,104.504 57.750 C 104.293 59.125,104.067 60.288,104.002 60.333 C 103.937 60.379,103.707 61.542,103.491 62.917 C 103.275 64.292,103.051 65.454,102.993 65.500 C 102.935 65.546,102.715 66.671,102.503 68.000 C 102.291 69.329,102.062 70.492,101.994 70.583 C 101.926 70.675,101.702 71.837,101.496 73.167 C 101.290 74.496,101.064 75.658,100.993 75.750 C 100.923 75.842,100.703 76.967,100.506 78.250 C 100.308 79.533,100.078 80.733,99.995 80.917 C 99.912 81.100,99.686 82.262,99.493 83.500 C 99.300 84.737,99.076 85.900,98.996 86.083 C 98.916 86.267,98.684 87.467,98.480 88.750 C 98.276 90.033,98.058 91.121,97.996 91.167 C 97.933 91.212,97.710 92.375,97.500 93.750 C 97.290 95.125,97.065 96.287,97.001 96.333 C 96.937 96.379,96.707 97.542,96.491 98.917 C 96.275 100.292,96.040 101.457,95.970 101.507 C 95.587 101.778,95.619 103.993,96.015 104.571 C 96.537 105.333,96.510 105.328,100.786 105.331 L 104.489 105.333 104.973 104.859 C 105.390 104.453,105.488 104.175,105.667 102.901 C 105.782 102.085,105.932 101.379,106.000 101.333 C 106.069 101.287,106.295 100.050,106.504 98.583 C 106.713 97.117,106.936 95.879,106.999 95.833 C 107.062 95.787,107.289 94.587,107.504 93.167 C 107.719 91.746,107.946 90.546,108.008 90.500 C 108.070 90.454,108.295 89.254,108.509 87.833 C 108.722 86.412,108.946 85.212,109.006 85.167 C 109.067 85.121,109.287 83.921,109.496 82.500 C 109.704 81.079,109.927 79.879,109.989 79.833 C 110.052 79.787,110.277 78.587,110.489 77.167 C 110.701 75.746,110.931 74.508,110.998 74.417 C 111.066 74.325,111.286 73.162,111.487 71.833 C 111.688 70.504,111.920 69.267,112.002 69.083 C 112.085 68.900,112.317 67.625,112.519 66.250 C 112.720 64.875,112.936 63.712,112.999 63.667 C 113.062 63.621,113.289 62.421,113.504 61.000 C 113.719 59.579,113.943 58.379,114.002 58.333 C 114.118 58.243,114.836 53.822,114.834 53.208 C 114.834 53.002,114.894 52.833,114.968 52.833 C 115.042 52.833,115.280 51.652,115.497 50.208 C 115.714 48.765,115.944 47.546,116.008 47.500 C 116.071 47.454,116.217 46.742,116.331 45.917 C 116.637 43.711,116.822 43.633,116.828 45.708 C 116.831 46.788,116.900 47.500,117.000 47.500 C 117.095 47.500,117.167 47.987,117.168 48.625 C 117.169 50.131,117.628 55.277,117.851 56.281 C 117.949 56.722,118.222 58.283,118.459 59.750 C 118.695 61.217,118.938 62.454,118.999 62.500 C 119.059 62.546,119.275 63.783,119.478 65.250 C 119.681 66.717,119.913 68.067,119.994 68.250 C 120.075 68.433,120.303 69.746,120.500 71.167 C 120.697 72.587,120.923 73.900,121.002 74.083 C 121.081 74.267,121.305 75.617,121.500 77.083 C 121.695 78.550,121.920 79.900,122.000 80.083 C 122.080 80.267,122.304 81.542,122.497 82.917 C 122.690 84.292,122.916 85.567,122.999 85.750 C 123.082 85.933,123.312 87.246,123.509 88.667 C 123.707 90.087,123.925 91.325,123.995 91.417 C 124.065 91.508,124.294 92.708,124.502 94.083 C 124.711 95.458,124.934 96.621,124.997 96.667 C 125.060 96.712,125.285 97.819,125.496 99.125 C 125.708 100.431,125.936 101.500,126.003 101.500 C 126.070 101.500,126.167 101.709,126.218 101.964 C 126.393 102.839,128.634 104.833,129.442 104.833 C 129.550 104.833,129.670 104.927,129.708 105.042 C 129.759 105.193,130.320 105.250,131.750 105.250 C 133.179 105.250,133.741 105.193,133.791 105.042 C 133.830 104.927,133.965 104.833,134.092 104.833 C 134.890 104.833,137.667 102.891,137.667 102.334 C 137.667 102.270,137.816 102.045,137.999 101.834 C 138.182 101.623,138.461 101.031,138.620 100.517 C 138.778 100.003,138.954 99.546,139.010 99.500 C 139.066 99.454,139.287 98.329,139.500 97.000 C 139.713 95.671,139.940 94.546,140.003 94.500 C 140.066 94.454,140.290 93.292,140.500 91.917 C 140.710 90.542,140.933 89.379,140.996 89.333 C 141.058 89.287,141.276 88.200,141.480 86.917 C 141.684 85.633,141.917 84.433,141.999 84.250 C 142.081 84.067,142.306 82.904,142.500 81.667 C 142.694 80.429,142.920 79.267,143.003 79.083 C 143.086 78.900,143.318 77.662,143.519 76.333 C 143.720 75.004,143.936 73.879,144.000 73.833 C 144.064 73.787,144.293 72.625,144.509 71.250 C 144.725 69.875,144.949 68.712,145.007 68.667 C 145.065 68.621,145.287 67.496,145.500 66.167 C 145.713 64.837,145.938 63.712,145.999 63.667 C 146.061 63.621,146.284 62.458,146.496 61.083 C 146.707 59.708,146.934 58.546,147.000 58.500 C 147.066 58.454,147.293 57.292,147.504 55.917 C 147.716 54.542,147.939 53.379,148.001 53.333 C 148.062 53.288,148.285 52.163,148.497 50.833 C 148.709 49.504,148.937 48.342,149.005 48.250 C 149.072 48.158,149.289 47.033,149.487 45.750 C 149.685 44.467,149.916 43.267,150.000 43.083 C 150.150 42.760,150.516 40.695,150.756 38.833 C 150.821 38.329,150.927 37.879,150.993 37.833 C 151.059 37.787,151.287 36.662,151.500 35.333 C 151.713 34.004,151.934 32.879,151.991 32.833 C 152.174 32.686,152.813 28.266,152.720 27.796 C 152.670 27.546,152.454 27.152,152.239 26.921 L 151.849 26.500 148.080 26.500 C 143.634 26.500,143.167 26.670,143.167 28.292 C 143.167 28.553,143.102 28.838,143.022 28.925 C 142.943 29.012,142.704 30.246,142.492 31.667 C 142.279 33.087,142.055 34.287,141.994 34.333 C 141.932 34.379,141.711 35.542,141.502 36.917 C 141.294 38.292,141.067 39.492,141.000 39.583 C 140.933 39.675,140.713 40.875,140.513 42.250 C 140.312 43.625,140.088 44.862,140.016 45.000 C 139.943 45.137,139.710 46.375,139.497 47.750 C 139.285 49.125,139.062 50.288,139.003 50.333 C 138.943 50.379,138.720 51.579,138.507 53.000 C 138.294 54.421,138.064 55.658,137.996 55.750 C 137.929 55.842,137.699 57.079,137.485 58.500 C 137.272 59.921,137.050 61.121,136.992 61.167 C 136.934 61.212,136.711 62.413,136.496 63.833 C 136.281 65.254,136.055 66.454,135.995 66.500 C 135.934 66.546,135.720 67.671,135.519 69.000 C 135.318 70.329,135.087 71.567,135.006 71.750 C 134.924 71.933,134.693 73.208,134.490 74.583 C 134.288 75.958,134.068 77.158,134.001 77.250 C 133.934 77.342,133.703 78.542,133.489 79.917 C 133.274 81.292,133.048 82.454,132.987 82.500 C 132.926 82.546,132.738 83.502,132.567 84.625 C 132.141 87.444,131.967 87.267,131.502 83.542 C 131.288 81.823,131.061 80.379,130.999 80.333 C 130.936 80.287,130.713 78.900,130.504 77.250 C 130.294 75.600,130.073 74.212,130.012 74.167 C 129.951 74.121,129.731 72.733,129.523 71.083 C 129.314 69.433,129.079 67.933,129.000 67.750 C 128.862 67.431,128.467 64.742,128.234 62.542 C 128.173 61.969,128.072 61.500,128.008 61.500 C 127.944 61.500,127.717 60.094,127.502 58.375 C 127.288 56.656,127.063 55.212,127.004 55.167 C 126.944 55.121,126.720 53.733,126.507 52.083 C 126.293 50.433,126.065 49.008,126.000 48.917 C 125.935 48.825,125.707 47.400,125.493 45.750 C 125.280 44.100,125.056 42.712,124.996 42.667 C 124.937 42.621,124.712 41.177,124.498 39.458 C 124.283 37.740,124.056 36.333,123.992 36.333 C 123.928 36.333,123.826 35.865,123.765 35.292 C 123.538 33.161,123.105 30.247,123.005 30.167 C 122.947 30.121,122.808 29.767,122.695 29.380 C 122.480 28.643,121.277 27.167,120.891 27.167 C 120.768 27.167,120.667 27.103,120.667 27.025 C 120.667 26.516,116.698 25.945,115.417 26.270 M26.875 26.694 C 26.485 26.782,26.167 26.912,26.167 26.983 C 26.167 27.055,25.871 27.202,25.510 27.311 C 25.149 27.419,24.653 27.674,24.408 27.879 C 23.176 28.905,22.497 29.605,22.321 30.030 C 22.214 30.289,22.069 30.500,22.000 30.500 C 21.931 30.500,21.703 30.969,21.493 31.542 C 21.284 32.115,21.058 32.658,20.992 32.750 C 20.925 32.842,20.708 33.929,20.509 35.167 C 20.310 36.404,20.080 37.567,19.997 37.750 C 19.914 37.933,19.690 39.096,19.499 40.333 C 19.309 41.571,19.093 42.696,19.020 42.833 C 18.947 42.971,18.709 44.208,18.492 45.583 C 18.275 46.958,18.051 48.121,17.993 48.167 C 17.935 48.212,17.715 49.337,17.503 50.667 C 17.291 51.996,17.062 53.158,16.994 53.250 C 16.926 53.342,16.701 54.504,16.494 55.833 C 16.287 57.163,16.064 58.288,15.999 58.333 C 15.934 58.379,15.707 59.542,15.496 60.917 C 15.284 62.292,15.061 63.454,14.999 63.500 C 14.938 63.546,14.715 64.671,14.503 66.000 C 14.291 67.329,14.062 68.492,13.994 68.583 C 13.926 68.675,13.702 69.837,13.496 71.167 C 13.290 72.496,13.064 73.658,12.993 73.750 C 12.923 73.842,12.703 74.967,12.506 76.250 C 12.308 77.533,12.080 78.733,11.999 78.917 C 11.917 79.100,11.691 80.262,11.497 81.500 C 11.302 82.737,11.077 83.900,10.996 84.083 C 10.916 84.267,10.684 85.467,10.480 86.750 C 10.276 88.033,10.058 89.121,9.996 89.167 C 9.933 89.212,9.710 90.375,9.500 91.750 C 9.290 93.125,9.065 94.287,9.000 94.333 C 8.936 94.379,8.712 95.503,8.504 96.831 C 7.966 100.255,8.165 102.219,9.166 103.355 C 9.439 103.664,9.663 103.962,9.664 104.019 C 9.665 104.075,10.023 104.300,10.458 104.519 C 10.894 104.737,11.287 104.965,11.333 105.023 C 11.867 105.704,34.218 105.699,35.068 105.018 C 35.168 104.938,35.512 104.821,35.833 104.759 C 36.732 104.585,38.240 104.118,38.333 103.985 C 38.379 103.919,38.847 103.714,39.374 103.529 C 39.900 103.344,40.449 103.074,40.594 102.930 C 40.739 102.785,40.930 102.667,41.019 102.667 C 41.252 102.667,43.185 101.431,43.601 101.017 C 43.794 100.824,44.011 100.667,44.084 100.667 C 44.633 100.667,49.659 95.628,49.670 95.066 C 49.671 94.984,49.859 94.740,50.086 94.524 C 50.314 94.308,50.500 94.041,50.500 93.931 C 50.500 93.820,50.635 93.584,50.800 93.406 C 51.187 92.989,52.402 90.469,52.683 89.500 C 52.803 89.087,52.954 88.712,53.019 88.666 C 53.085 88.619,53.308 87.532,53.515 86.249 C 53.722 84.966,53.941 83.879,54.003 83.833 C 54.065 83.787,54.293 82.625,54.509 81.250 C 54.725 79.875,54.951 78.712,55.010 78.667 C 55.601 78.211,55.600 71.381,55.008 70.583 C 54.941 70.492,54.786 70.042,54.666 69.583 C 54.401 68.575,53.248 66.400,52.910 66.270 C 52.776 66.219,52.667 66.076,52.667 65.953 C 52.667 65.719,51.723 64.815,51.000 64.356 C 50.771 64.210,50.543 64.036,50.494 63.968 C 50.444 63.900,49.948 63.673,49.391 63.464 C 48.121 62.986,48.095 62.853,49.197 62.446 C 49.685 62.265,50.121 62.064,50.167 61.998 C 50.212 61.932,50.569 61.717,50.958 61.519 C 51.348 61.321,51.667 61.086,51.667 60.997 C 51.667 60.907,51.767 60.833,51.889 60.833 C 52.150 60.833,54.833 58.380,54.833 58.141 C 54.833 58.052,55.058 57.789,55.333 57.558 C 55.608 57.326,55.833 57.031,55.833 56.902 C 55.833 56.772,55.907 56.667,55.997 56.667 C 56.086 56.667,56.313 56.367,56.500 56.000 C 56.687 55.633,56.895 55.333,56.962 55.332 C 57.029 55.331,57.266 54.918,57.490 54.415 C 57.714 53.912,57.952 53.500,58.018 53.500 C 58.085 53.500,58.268 53.106,58.425 52.625 C 58.581 52.144,58.843 51.450,59.007 51.083 C 59.170 50.716,59.437 49.591,59.599 48.583 C 59.761 47.575,59.944 46.712,60.006 46.667 C 60.701 46.150,60.703 37.807,60.007 36.917 C 59.936 36.825,59.711 36.206,59.508 35.542 C 59.305 34.877,59.085 34.333,59.019 34.333 C 58.954 34.333,58.737 33.998,58.537 33.588 C 58.173 32.838,57.948 32.530,57.153 31.700 C 56.916 31.452,56.632 31.081,56.522 30.875 C 56.412 30.669,56.228 30.500,56.115 30.500 C 56.001 30.500,55.711 30.294,55.470 30.042 C 54.457 28.979,51.636 27.424,50.379 27.236 C 49.987 27.177,49.667 27.073,49.667 27.006 C 49.667 26.524,28.900 26.241,26.875 26.694 M45.276 36.399 C 48.174 37.021,50.297 39.471,50.745 42.710 C 50.864 43.573,50.222 48.375,49.974 48.472 C 49.897 48.503,49.833 48.691,49.833 48.889 C 49.833 49.767,48.519 53.131,48.035 53.494 C 47.969 53.543,47.697 53.906,47.430 54.300 C 46.935 55.028,45.169 56.667,44.878 56.667 C 44.790 56.667,44.591 56.807,44.435 56.979 C 44.280 57.152,43.724 57.426,43.201 57.588 C 42.678 57.751,42.197 57.967,42.131 58.067 C 42.048 58.195,39.526 58.266,33.828 58.302 L 25.643 58.354 25.761 57.552 C 25.826 57.111,25.929 56.712,25.989 56.667 C 26.049 56.621,26.275 55.458,26.491 54.083 C 26.707 52.708,26.937 51.546,27.002 51.500 C 27.067 51.454,27.293 50.292,27.504 48.917 C 27.716 47.542,27.939 46.379,28.001 46.333 C 28.062 46.288,28.285 45.163,28.497 43.833 C 28.709 42.504,28.936 41.342,29.001 41.250 C 29.067 41.158,29.296 39.977,29.510 38.625 L 29.899 36.167 37.075 36.173 C 42.374 36.177,44.518 36.236,45.276 36.399 M315.711 40.662 C 315.258 40.855,314.167 41.828,314.167 42.039 C 314.167 42.122,314.054 42.303,313.917 42.440 C 313.343 43.014,313.581 45.071,314.288 45.655 C 314.911 46.168,317.333 46.456,317.333 46.016 C 317.333 45.934,317.553 45.789,317.821 45.696 C 318.089 45.602,318.444 45.314,318.609 45.055 C 318.774 44.795,318.975 44.537,319.055 44.479 C 319.660 44.050,319.471 41.846,318.764 41.083 C 318.271 40.550,316.536 40.311,315.711 40.662 M168.083 50.609 C 167.167 50.741,166.392 50.921,166.361 51.008 C 166.331 51.095,166.181 51.166,166.028 51.166 C 165.557 51.165,163.333 51.873,163.333 52.024 C 163.333 52.103,163.230 52.167,163.105 52.167 C 162.853 52.167,161.300 52.820,161.167 52.982 C 161.121 53.038,160.746 53.267,160.333 53.491 C 159.921 53.715,159.484 53.996,159.363 54.116 C 159.242 54.235,159.075 54.333,158.991 54.333 C 158.603 54.333,154.167 58.681,154.167 59.061 C 154.167 59.195,154.075 59.336,153.963 59.373 C 153.743 59.447,153.270 60.220,152.561 61.667 C 152.314 62.171,152.057 62.621,151.990 62.667 C 151.847 62.764,151.167 64.785,151.167 65.111 C 151.167 65.233,151.106 65.333,151.032 65.333 C 150.867 65.333,150.571 66.490,150.307 68.167 C 150.199 68.854,150.061 69.454,150.001 69.500 C 149.940 69.546,149.724 70.633,149.520 71.917 C 149.316 73.200,149.083 74.400,149.001 74.583 C 148.919 74.767,148.694 75.929,148.500 77.167 C 148.306 78.404,148.080 79.567,147.997 79.750 C 147.914 79.933,147.689 81.096,147.497 82.333 C 147.304 83.571,147.081 84.733,147.000 84.917 C 146.010 87.157,146.031 97.500,147.025 97.500 C 147.103 97.500,147.167 97.615,147.167 97.757 C 147.167 98.071,147.787 99.311,148.103 99.626 C 148.230 99.753,148.333 99.927,148.333 100.012 C 148.333 100.310,149.636 101.547,149.859 101.460 C 149.982 101.412,150.263 100.913,150.483 100.353 C 150.703 99.792,150.930 99.333,150.987 99.333 C 151.044 99.333,151.274 98.790,151.497 98.125 C 151.720 97.460,151.960 96.876,152.030 96.826 C 152.101 96.776,152.312 96.254,152.500 95.667 C 152.688 95.079,152.901 94.557,152.973 94.507 C 153.045 94.457,153.282 93.929,153.500 93.333 C 153.718 92.737,153.946 92.212,154.008 92.167 C 154.069 92.121,154.291 91.596,154.500 91.000 C 154.709 90.404,154.933 89.879,154.999 89.833 C 155.146 89.730,155.833 87.751,155.833 87.430 C 155.833 87.300,155.895 87.169,155.971 87.139 C 156.047 87.108,156.275 86.033,156.479 84.750 C 156.683 83.467,156.917 82.267,156.999 82.083 C 157.081 81.900,157.313 80.662,157.515 79.333 C 157.718 78.004,157.936 76.879,158.001 76.833 C 158.066 76.787,158.293 75.625,158.504 74.250 C 158.716 72.875,158.940 71.712,159.002 71.667 C 159.064 71.621,159.249 70.721,159.413 69.667 C 159.577 68.612,159.878 67.375,160.082 66.917 C 160.286 66.458,160.553 65.802,160.676 65.458 C 160.800 65.115,160.954 64.833,161.020 64.833 C 161.086 64.833,161.307 64.562,161.512 64.231 C 161.841 63.698,162.537 62.960,163.583 62.037 C 163.767 61.875,164.217 61.594,164.583 61.413 C 164.950 61.232,165.275 61.027,165.305 60.959 C 165.336 60.891,165.870 60.680,166.492 60.491 L 167.623 60.147 168.145 59.077 C 168.432 58.489,168.667 57.921,168.667 57.815 C 168.667 57.709,168.806 57.389,168.977 57.103 C 169.148 56.817,169.428 56.171,169.601 55.667 C 169.773 55.163,169.970 54.709,170.038 54.658 C 170.106 54.608,170.306 54.158,170.483 53.658 C 170.660 53.159,170.998 52.357,171.235 51.876 C 172.066 50.193,171.778 50.078,168.083 50.609 M301.517 50.587 C 300.839 50.709,300.239 50.876,300.184 50.957 C 300.129 51.038,299.652 51.238,299.125 51.401 C 298.598 51.564,298.125 51.767,298.072 51.851 C 298.020 51.936,297.664 52.163,297.280 52.357 C 296.471 52.765,296.475 52.762,294.833 54.329 L 293.583 55.523 293.493 53.680 C 293.397 51.701,293.399 51.706,292.453 51.182 C 291.757 50.797,287.167 50.638,287.167 51.000 C 287.167 51.092,287.035 51.167,286.873 51.167 C 286.413 51.167,285.718 51.919,285.614 52.529 C 285.562 52.834,285.429 53.683,285.319 54.417 C 285.209 55.150,285.065 55.825,284.999 55.917 C 284.933 56.008,284.703 57.208,284.489 58.583 C 284.274 59.958,284.051 61.121,283.993 61.167 C 283.935 61.212,283.713 62.337,283.500 63.667 C 283.287 64.996,283.062 66.121,283.001 66.167 C 282.939 66.212,282.716 67.375,282.504 68.750 C 282.293 70.125,282.067 71.287,282.002 71.333 C 281.937 71.379,281.707 72.542,281.491 73.917 C 281.275 75.292,281.051 76.454,280.993 76.500 C 280.935 76.546,280.715 77.671,280.503 79.000 C 280.291 80.329,280.062 81.492,279.994 81.583 C 279.926 81.675,279.702 82.837,279.496 84.167 C 279.290 85.496,279.064 86.658,278.993 86.750 C 278.923 86.842,278.703 87.967,278.506 89.250 C 278.308 90.533,278.080 91.733,277.999 91.917 C 277.917 92.100,277.691 93.263,277.497 94.500 C 277.302 95.737,277.077 96.900,276.996 97.083 C 276.916 97.267,276.683 98.467,276.479 99.750 C 276.275 101.033,276.047 102.108,275.971 102.139 C 275.722 102.239,275.813 104.171,276.080 104.437 C 276.215 104.572,276.397 104.811,276.484 104.967 C 276.625 105.218,277.067 105.256,280.370 105.300 L 284.097 105.351 284.613 104.784 C 285.085 104.266,285.161 104.012,285.506 101.817 C 285.713 100.497,285.936 99.379,286.001 99.333 C 286.066 99.287,286.293 98.125,286.504 96.750 C 286.716 95.375,286.939 94.212,286.999 94.167 C 287.060 94.121,287.276 93.033,287.480 91.750 C 287.684 90.467,287.915 89.267,287.994 89.083 C 288.073 88.900,288.307 87.662,288.513 86.333 C 288.719 85.004,288.940 83.879,289.004 83.833 C 289.067 83.787,289.293 82.625,289.504 81.250 C 289.716 79.875,289.939 78.712,290.001 78.667 C 290.062 78.621,290.287 77.496,290.500 76.167 C 290.713 74.837,290.936 73.712,290.994 73.667 C 291.053 73.621,291.280 72.440,291.498 71.042 C 291.717 69.644,291.956 68.500,292.031 68.500 C 292.106 68.500,292.167 68.362,292.167 68.194 C 292.167 67.799,292.829 65.776,292.994 65.667 C 293.063 65.621,293.254 65.321,293.417 65.000 C 293.801 64.245,296.245 61.801,297.000 61.417 C 297.321 61.254,297.621 61.063,297.667 60.993 C 297.767 60.840,299.720 60.167,300.064 60.167 C 300.197 60.167,300.334 60.081,300.369 59.977 C 300.471 59.669,303.475 59.740,304.083 60.064 C 304.358 60.211,304.681 60.332,304.800 60.332 C 305.779 60.337,307.933 62.338,308.523 63.790 C 308.738 64.318,308.982 64.799,309.065 64.859 C 309.278 65.011,309.271 68.254,309.057 68.527 C 308.961 68.650,308.710 69.837,308.500 71.167 C 308.290 72.496,308.061 73.658,307.992 73.750 C 307.922 73.842,307.703 74.967,307.506 76.250 C 307.308 77.533,307.080 78.733,306.999 78.917 C 306.917 79.100,306.691 80.262,306.497 81.500 C 306.302 82.737,306.077 83.900,305.996 84.083 C 305.916 84.267,305.684 85.467,305.480 86.750 C 305.276 88.033,305.058 89.121,304.996 89.167 C 304.933 89.212,304.710 90.375,304.500 91.750 C 304.290 93.125,304.065 94.287,304.001 94.333 C 303.937 94.379,303.707 95.542,303.491 96.917 C 303.275 98.292,303.051 99.454,302.994 99.500 C 302.848 99.618,302.332 102.857,302.339 103.617 C 302.344 104.254,302.639 104.833,302.959 104.833 C 303.054 104.833,303.174 104.946,303.227 105.083 C 303.308 105.295,303.873 105.333,306.889 105.333 L 310.455 105.333 310.965 104.875 C 311.403 104.482,311.505 104.227,311.681 103.083 C 311.794 102.350,311.938 101.712,312.001 101.667 C 312.064 101.621,312.293 100.458,312.509 99.083 C 312.725 97.708,312.949 96.546,313.007 96.500 C 313.065 96.454,313.287 95.329,313.500 94.000 C 313.713 92.671,313.938 91.546,313.999 91.500 C 314.061 91.454,314.284 90.292,314.496 88.917 C 314.707 87.542,314.933 86.379,314.998 86.333 C 315.063 86.287,315.293 85.125,315.509 83.750 C 315.725 82.375,315.949 81.212,316.006 81.167 C 316.063 81.121,316.276 80.033,316.480 78.750 C 316.684 77.467,316.917 76.267,316.999 76.083 C 317.081 75.900,317.313 74.662,317.515 73.333 C 317.718 72.004,317.935 70.879,317.998 70.833 C 318.062 70.787,318.206 70.150,318.319 69.417 C 318.557 67.866,318.819 66.785,318.984 66.667 C 319.048 66.621,319.239 66.208,319.408 65.750 C 319.576 65.292,319.854 64.782,320.024 64.619 C 320.194 64.455,320.333 64.242,320.333 64.145 C 320.333 63.875,322.596 61.711,323.207 61.399 C 323.505 61.245,323.787 61.070,323.833 61.008 C 323.879 60.946,324.367 60.725,324.917 60.515 C 325.467 60.306,326.067 60.068,326.250 59.987 C 327.392 59.481,331.500 59.507,331.500 60.019 C 331.500 60.100,331.615 60.167,331.757 60.167 C 332.086 60.167,333.333 60.800,333.333 60.967 C 333.333 61.037,333.556 61.226,333.829 61.387 C 334.101 61.548,334.447 61.940,334.598 62.257 C 334.748 62.574,334.926 62.833,334.992 62.833 C 335.720 62.833,335.727 70.624,334.999 71.167 C 334.938 71.212,334.713 72.337,334.500 73.667 C 334.287 74.996,334.060 76.121,333.997 76.167 C 333.934 76.212,333.710 77.375,333.500 78.750 C 333.290 80.125,333.065 81.287,333.001 81.333 C 332.937 81.379,332.707 82.542,332.491 83.917 C 332.275 85.292,332.051 86.454,331.993 86.500 C 331.935 86.546,331.715 87.671,331.503 89.000 C 331.291 90.329,331.062 91.492,330.994 91.583 C 330.926 91.675,330.702 92.837,330.496 94.167 C 330.290 95.496,330.064 96.658,329.993 96.750 C 329.923 96.842,329.703 97.967,329.506 99.250 C 329.308 100.533,329.080 101.733,328.999 101.917 C 328.506 103.034,328.652 104.078,329.410 104.875 L 329.847 105.333 333.215 105.331 C 337.961 105.328,337.889 105.378,338.489 101.667 C 338.689 100.429,338.917 99.267,338.995 99.083 C 339.074 98.900,339.307 97.662,339.513 96.333 C 339.719 95.004,339.940 93.879,340.003 93.833 C 340.066 93.787,340.290 92.625,340.500 91.250 C 340.710 89.875,340.934 88.712,340.997 88.667 C 341.060 88.621,341.287 87.496,341.500 86.167 C 341.713 84.837,341.935 83.712,341.993 83.667 C 342.051 83.621,342.275 82.458,342.491 81.083 C 342.707 79.708,342.937 78.546,343.001 78.500 C 343.065 78.454,343.290 77.292,343.500 75.917 C 343.710 74.542,343.935 73.379,343.999 73.333 C 344.063 73.287,344.293 72.125,344.509 70.750 C 344.725 69.375,344.980 68.196,345.076 68.131 C 345.323 67.962,345.313 61.695,345.066 61.536 C 344.964 61.470,344.829 61.117,344.766 60.750 C 344.629 59.960,344.161 58.452,344.015 58.333 C 343.959 58.288,343.732 57.856,343.511 57.375 C 343.290 56.894,343.060 56.500,342.998 56.500 C 342.937 56.500,342.802 56.313,342.698 56.085 C 342.454 55.550,340.322 53.333,340.051 53.333 C 339.938 53.333,339.768 53.188,339.673 53.011 C 339.578 52.834,339.340 52.638,339.143 52.576 C 338.946 52.513,338.460 52.256,338.062 52.004 C 337.664 51.751,336.981 51.447,336.544 51.326 C 336.107 51.206,335.712 51.061,335.667 51.004 C 335.047 50.230,326.033 50.200,325.510 50.971 C 325.458 51.046,325.042 51.209,324.583 51.332 C 323.834 51.534,321.598 52.611,321.109 53.005 C 321.003 53.091,320.460 53.518,319.903 53.955 C 318.821 54.803,316.825 56.960,316.473 57.660 C 315.926 58.748,315.707 58.749,315.403 57.665 C 315.249 57.116,315.063 56.667,314.991 56.667 C 314.918 56.667,314.776 56.414,314.674 56.106 C 314.129 54.455,311.471 51.951,309.583 51.311 C 309.217 51.187,308.872 51.024,308.818 50.950 C 308.432 50.422,303.719 50.188,301.517 50.587 M369.750 50.444 C 368.466 50.601,367.074 50.869,366.920 50.988 C 366.826 51.061,366.188 51.289,365.500 51.494 C 364.813 51.699,364.212 51.921,364.167 51.986 C 364.121 52.051,363.652 52.277,363.125 52.488 C 362.598 52.699,362.166 52.920,362.164 52.978 C 362.163 53.036,361.788 53.267,361.331 53.491 C 360.874 53.715,360.500 53.961,360.500 54.037 C 360.500 54.113,360.329 54.240,360.120 54.320 C 359.230 54.658,355.286 58.521,354.406 59.917 C 354.233 60.192,354.046 60.454,353.991 60.500 C 353.937 60.546,353.710 60.921,353.488 61.333 C 353.265 61.746,352.998 62.174,352.894 62.284 C 352.791 62.395,352.570 62.863,352.403 63.326 C 352.237 63.788,352.047 64.167,351.981 64.167 C 351.915 64.167,351.701 64.710,351.505 65.375 C 351.309 66.040,351.080 66.710,350.996 66.866 C 350.911 67.021,350.686 68.108,350.494 69.282 C 350.303 70.456,350.079 71.567,349.996 71.750 C 349.914 71.933,349.690 73.096,349.499 74.333 C 349.309 75.571,349.093 76.696,349.020 76.833 C 348.947 76.971,348.709 78.208,348.492 79.583 C 348.275 80.958,348.051 82.121,347.993 82.167 C 347.935 82.212,347.713 83.337,347.500 84.667 C 347.287 85.996,347.055 87.122,346.984 87.169 C 346.464 87.520,346.467 94.607,346.988 95.235 C 347.073 95.337,347.235 95.795,347.348 96.252 C 347.582 97.195,348.791 99.667,349.017 99.667 C 349.100 99.667,349.167 99.772,349.167 99.902 C 349.167 100.031,349.392 100.326,349.667 100.558 C 349.942 100.789,350.167 101.051,350.167 101.139 C 350.167 101.325,351.541 102.513,352.012 102.734 C 352.189 102.817,352.333 102.941,352.333 103.010 C 352.333 103.207,354.664 104.437,355.500 104.681 C 355.912 104.802,356.287 104.948,356.333 105.006 C 356.973 105.817,366.231 105.825,367.237 105.015 C 367.336 104.936,368.005 104.711,368.724 104.515 C 369.443 104.319,370.142 104.048,370.278 103.913 C 370.413 103.777,370.654 103.667,370.813 103.667 C 370.973 103.667,371.539 103.404,372.072 103.083 C 372.604 102.763,373.106 102.500,373.187 102.500 C 373.267 102.500,373.469 102.369,373.636 102.208 C 373.802 102.048,374.196 101.775,374.511 101.603 C 374.826 101.430,375.160 101.196,375.253 101.082 C 375.346 100.969,375.646 100.734,375.920 100.561 C 377.235 99.730,379.267 97.680,379.407 97.044 C 379.637 95.996,379.266 95.340,377.744 94.103 C 376.968 93.472,376.333 92.891,376.333 92.811 C 376.333 92.732,376.249 92.667,376.145 92.667 C 376.042 92.667,375.667 92.404,375.311 92.083 C 374.450 91.305,372.861 91.214,372.401 91.917 C 372.251 92.146,372.030 92.333,371.910 92.333 C 371.789 92.333,371.553 92.502,371.386 92.708 C 370.707 93.542,367.694 95.278,366.250 95.667 C 365.792 95.791,365.365 95.970,365.302 96.065 C 365.142 96.304,361.618 96.303,361.317 96.063 C 361.189 95.961,360.783 95.782,360.417 95.665 C 359.769 95.460,357.862 94.201,357.843 93.967 C 357.838 93.903,357.601 93.505,357.316 93.084 C 356.310 91.592,356.104 89.701,356.615 86.617 C 356.996 84.314,356.518 84.500,362.042 84.500 C 366.491 84.500,370.312 84.281,370.500 84.016 C 370.546 83.951,371.221 83.765,372.000 83.602 C 372.779 83.440,373.717 83.171,374.083 83.005 C 374.450 82.839,375.087 82.565,375.500 82.396 C 375.912 82.227,376.349 81.994,376.470 81.878 C 376.591 81.762,376.785 81.667,376.901 81.667 C 377.017 81.667,377.531 81.367,378.043 81.000 C 378.555 80.633,379.053 80.333,379.148 80.333 C 379.243 80.333,379.402 80.183,379.500 80.000 C 379.598 79.817,379.762 79.667,379.865 79.667 C 380.020 79.667,381.037 78.667,383.178 76.411 C 383.355 76.224,383.500 75.995,383.500 75.901 C 383.500 75.806,383.645 75.574,383.823 75.383 C 384.225 74.951,385.666 72.173,385.666 71.829 C 385.667 71.689,385.770 71.426,385.896 71.245 C 386.989 69.682,387.080 59.721,386.005 59.363 C 385.911 59.331,385.833 59.206,385.833 59.083 C 385.833 58.806,385.190 57.288,385.022 57.170 C 384.955 57.122,384.727 56.800,384.517 56.455 C 383.973 55.559,382.298 53.667,382.050 53.667 C 382.001 53.667,381.694 53.432,381.367 53.146 C 381.041 52.859,380.514 52.516,380.196 52.383 C 379.878 52.251,379.524 52.047,379.408 51.932 C 379.293 51.817,378.760 51.587,378.224 51.422 C 377.688 51.256,377.161 51.051,377.053 50.966 C 376.489 50.523,371.831 50.190,369.750 50.444 M257.755 50.695 C 257.299 50.782,256.844 50.922,256.744 51.005 C 256.643 51.089,256.153 51.244,255.655 51.350 C 254.444 51.608,251.717 52.829,249.917 53.920 C 249.458 54.197,248.877 54.515,248.625 54.625 C 248.373 54.736,248.167 54.903,248.167 54.996 C 248.167 55.090,248.069 55.167,247.949 55.167 C 246.914 55.167,246.324 57.213,246.998 58.467 C 247.478 59.361,248.667 61.995,248.667 62.164 C 248.667 62.984,251.183 63.804,251.617 63.125 C 251.690 63.010,252.088 62.735,252.500 62.512 C 252.912 62.290,253.287 62.056,253.333 61.992 C 253.379 61.928,253.829 61.701,254.333 61.488 C 254.838 61.275,255.289 61.046,255.336 60.978 C 255.790 60.334,259.807 59.964,261.488 60.411 C 262.328 60.635,264.165 61.715,264.316 62.074 C 264.353 62.160,264.540 62.392,264.733 62.590 C 265.165 63.032,265.666 63.891,265.668 64.192 C 265.668 64.316,265.793 64.642,265.946 64.917 C 266.278 65.517,266.343 68.429,266.038 69.035 C 265.932 69.245,265.786 69.933,265.714 70.564 L 265.583 71.711 265.003 70.814 C 264.330 69.773,263.390 68.859,262.525 68.405 C 262.190 68.230,261.871 68.024,261.816 67.947 C 261.109 66.973,253.554 66.946,251.431 67.911 C 251.148 68.039,250.579 68.257,250.167 68.395 C 248.802 68.850,245.537 70.642,245.300 71.065 C 245.218 71.213,245.047 71.333,244.920 71.333 C 244.794 71.333,244.543 71.521,244.363 71.750 C 244.183 71.979,243.969 72.167,243.889 72.167 C 243.703 72.167,241.167 74.710,241.167 74.896 C 241.167 74.973,240.979 75.183,240.750 75.363 C 240.521 75.543,240.333 75.794,240.333 75.920 C 240.333 76.047,240.239 76.210,240.123 76.283 C 239.633 76.595,237.732 80.144,237.329 81.500 C 237.207 81.912,237.052 82.325,236.985 82.417 C 236.850 82.601,236.423 84.614,236.241 85.917 C 236.177 86.375,236.060 86.831,235.981 86.931 C 235.442 87.612,235.438 94.567,235.977 95.224 C 236.063 95.330,236.220 95.754,236.325 96.167 C 236.575 97.152,236.846 97.833,236.987 97.833 C 237.050 97.833,237.238 98.214,237.405 98.680 C 237.573 99.146,237.813 99.566,237.938 99.615 C 238.064 99.663,238.167 99.801,238.167 99.921 C 238.167 100.211,240.642 102.833,240.916 102.833 C 241.034 102.833,241.173 102.942,241.224 103.075 C 241.275 103.207,241.560 103.442,241.858 103.596 C 242.156 103.750,242.503 103.979,242.629 104.105 C 242.754 104.231,242.930 104.333,243.019 104.333 C 243.108 104.333,243.673 104.563,244.274 104.845 C 247.280 106.250,252.651 106.206,255.759 104.751 C 256.445 104.430,257.081 104.167,257.170 104.167 C 257.260 104.167,257.333 104.100,257.333 104.019 C 257.333 103.938,257.600 103.745,257.927 103.590 C 258.253 103.435,258.560 103.205,258.608 103.078 C 258.657 102.952,258.952 102.698,259.265 102.513 C 259.578 102.329,259.833 102.081,259.833 101.962 C 259.833 101.844,259.987 101.651,260.174 101.534 C 260.362 101.417,260.582 101.155,260.664 100.952 C 260.765 100.701,260.816 101.158,260.823 102.387 C 260.831 103.745,260.894 104.251,261.080 104.437 C 261.215 104.572,261.397 104.811,261.484 104.967 C 261.623 105.214,262.027 105.257,264.657 105.302 L 267.671 105.354 268.153 104.872 C 268.524 104.502,268.663 104.171,268.754 103.445 C 268.819 102.925,268.925 102.500,268.991 102.500 C 269.056 102.500,269.284 101.356,269.498 99.958 C 269.712 98.560,269.937 97.379,269.999 97.333 C 270.061 97.287,270.285 96.162,270.497 94.833 C 270.709 93.504,270.937 92.342,271.005 92.250 C 271.072 92.158,271.289 91.033,271.487 89.750 C 271.685 88.467,271.916 87.267,272.000 87.083 C 272.150 86.760,272.516 84.695,272.756 82.833 C 272.821 82.329,272.927 81.879,272.993 81.833 C 273.059 81.787,273.287 80.662,273.500 79.333 C 273.713 78.004,273.935 76.879,273.993 76.833 C 274.051 76.787,274.275 75.625,274.491 74.250 C 274.707 72.875,274.938 71.712,275.003 71.667 C 275.954 71.002,275.954 60.399,275.004 59.667 C 274.944 59.621,274.722 59.115,274.511 58.542 C 274.299 57.969,274.069 57.500,274.000 57.500 C 273.931 57.500,273.787 57.291,273.682 57.036 C 273.576 56.781,273.297 56.350,273.061 56.078 C 272.825 55.806,272.506 55.433,272.353 55.250 C 272.096 54.944,270.548 53.526,269.947 53.047 C 269.147 52.409,266.424 51.174,265.806 51.169 C 265.653 51.168,265.503 51.096,265.472 51.009 C 265.313 50.559,259.675 50.329,257.755 50.695 M66.000 50.990 C 65.862 51.066,65.537 51.228,65.277 51.350 C 64.684 51.628,64.406 52.166,64.251 53.333 C 64.184 53.837,64.074 54.325,64.006 54.417 C 63.938 54.508,63.710 55.671,63.500 57.000 C 63.290 58.329,63.061 59.492,62.992 59.583 C 62.923 59.675,62.707 60.800,62.512 62.083 C 62.317 63.367,62.094 64.532,62.016 64.673 C 61.939 64.814,61.711 65.939,61.511 67.173 C 61.311 68.407,61.084 69.567,61.005 69.750 C 60.927 69.933,60.701 71.096,60.504 72.333 C 60.306 73.571,60.077 74.733,59.995 74.917 C 59.913 75.100,59.682 76.337,59.481 77.667 C 59.280 78.996,59.064 80.121,59.000 80.167 C 58.936 80.212,58.707 81.375,58.491 82.750 C 58.275 84.125,58.051 85.287,57.994 85.333 C 57.829 85.466,57.329 88.757,57.224 90.407 C 57.095 92.417,57.562 96.113,57.993 96.500 C 58.044 96.546,58.227 96.996,58.398 97.500 C 58.570 98.004,58.795 98.492,58.899 98.583 C 59.003 98.675,59.170 98.938,59.272 99.167 C 59.847 100.468,62.478 103.048,63.875 103.680 C 64.127 103.794,64.333 103.944,64.333 104.013 C 64.333 104.083,64.727 104.268,65.208 104.425 C 65.690 104.581,66.383 104.842,66.750 105.003 C 68.613 105.826,74.758 105.828,75.500 105.007 C 75.546 104.957,76.025 104.769,76.565 104.589 C 77.104 104.410,77.636 104.173,77.747 104.063 C 77.857 103.953,78.203 103.724,78.516 103.556 C 79.101 103.242,79.486 102.936,80.342 102.107 C 80.998 101.472,81.348 101.609,81.215 102.450 C 81.160 102.798,81.064 103.121,81.001 103.167 C 80.939 103.212,80.715 104.337,80.503 105.667 C 80.291 106.996,80.064 108.158,79.998 108.250 C 79.933 108.342,79.829 108.754,79.768 109.167 C 79.644 110.008,79.177 111.539,79.006 111.667 C 78.944 111.712,78.732 112.087,78.535 112.500 C 78.337 112.912,78.024 113.344,77.838 113.460 C 77.652 113.575,77.499 113.763,77.497 113.876 C 77.496 113.990,77.177 114.363,76.789 114.706 C 74.373 116.836,72.426 117.686,69.917 117.705 C 68.861 117.713,66.710 117.270,66.500 117.001 C 66.454 116.942,66.042 116.715,65.583 116.496 C 65.125 116.278,64.605 115.964,64.427 115.799 C 64.249 115.635,64.017 115.500,63.911 115.500 C 63.805 115.500,63.587 115.355,63.427 115.178 C 62.893 114.589,62.033 114.291,61.216 114.413 C 60.446 114.529,56.261 118.119,55.439 119.369 C 54.965 120.090,55.111 121.926,55.676 122.352 C 55.900 122.521,56.233 122.774,56.417 122.914 C 57.437 123.696,58.926 124.667,59.104 124.667 C 59.217 124.667,59.412 124.769,59.538 124.895 C 59.848 125.205,60.760 125.667,61.063 125.667 C 61.199 125.667,61.415 125.772,61.544 125.902 C 61.781 126.138,63.896 126.833,64.379 126.833 C 64.522 126.833,64.664 126.906,64.694 126.995 C 64.873 127.515,71.192 127.523,72.132 127.004 C 72.289 126.917,73.050 126.694,73.824 126.507 C 74.597 126.320,75.272 126.106,75.324 126.031 C 75.375 125.957,75.885 125.722,76.458 125.511 C 77.031 125.299,77.500 125.065,77.500 124.991 C 77.500 124.917,77.669 124.803,77.875 124.738 C 78.238 124.624,80.248 123.369,80.808 122.906 C 81.730 122.146,84.833 119.051,84.833 118.893 C 84.833 118.788,84.940 118.661,85.071 118.611 C 85.201 118.561,85.435 118.253,85.590 117.927 C 85.745 117.600,85.933 117.333,86.007 117.333 C 86.082 117.333,86.317 116.977,86.530 116.542 C 86.743 116.106,87.004 115.658,87.110 115.545 C 87.216 115.432,87.439 114.982,87.604 114.545 C 87.769 114.108,87.983 113.669,88.079 113.569 C 88.176 113.469,88.398 112.832,88.572 112.152 C 88.746 111.473,88.940 110.879,89.003 110.833 C 89.113 110.753,89.538 108.487,89.769 106.750 C 89.830 106.292,89.932 105.879,89.996 105.833 C 90.060 105.787,90.287 104.662,90.500 103.333 C 90.713 102.004,90.935 100.879,90.993 100.833 C 91.051 100.787,91.275 99.625,91.491 98.250 C 91.707 96.875,91.937 95.712,92.001 95.667 C 92.065 95.621,92.290 94.458,92.500 93.083 C 92.710 91.708,92.934 90.546,92.997 90.500 C 93.060 90.454,93.285 89.329,93.497 88.000 C 93.709 86.671,93.935 85.508,94.000 85.417 C 94.065 85.325,94.291 84.162,94.503 82.833 C 94.715 81.504,94.939 80.379,95.002 80.333 C 95.065 80.287,95.280 79.162,95.481 77.833 C 95.682 76.504,95.917 75.267,96.003 75.083 C 96.183 74.700,96.833 70.932,96.833 70.273 C 96.833 70.031,96.894 69.833,96.967 69.833 C 97.041 69.833,97.277 68.727,97.493 67.375 C 97.708 66.023,97.936 64.879,97.999 64.833 C 98.062 64.787,98.288 63.606,98.502 62.208 C 98.716 60.810,98.941 59.667,99.002 59.667 C 99.063 59.667,99.290 58.504,99.505 57.083 C 99.721 55.663,99.958 54.500,100.032 54.500 C 100.106 54.500,100.167 53.975,100.167 53.333 C 100.167 52.692,100.104 52.167,100.027 52.167 C 99.950 52.167,99.801 51.977,99.695 51.746 C 99.575 51.481,99.318 51.289,99.002 51.225 C 98.726 51.170,98.500 51.059,98.500 50.979 C 98.500 50.899,97.150 50.833,95.500 50.833 C 93.850 50.833,92.500 50.893,92.500 50.966 C 92.500 51.038,92.263 51.169,91.972 51.257 C 91.682 51.345,91.364 51.567,91.264 51.750 C 91.165 51.933,91.022 52.129,90.947 52.184 C 90.871 52.239,90.640 53.289,90.433 54.517 C 90.225 55.745,90.010 56.862,89.954 57.000 C 89.898 57.137,89.693 58.225,89.498 59.417 C 89.302 60.608,89.077 61.733,88.997 61.917 C 88.917 62.100,88.687 63.337,88.485 64.667 C 88.282 65.996,88.065 67.121,88.001 67.167 C 87.937 67.212,87.707 68.375,87.491 69.750 C 87.275 71.125,87.051 72.287,86.993 72.333 C 86.935 72.379,86.715 73.504,86.503 74.833 C 86.291 76.162,86.062 77.325,85.994 77.417 C 85.926 77.508,85.702 78.671,85.496 80.000 C 85.290 81.329,85.064 82.492,84.992 82.583 C 84.921 82.675,84.693 83.837,84.486 85.167 C 84.278 86.496,84.056 87.621,83.991 87.667 C 83.927 87.712,83.818 88.162,83.749 88.667 C 83.590 89.843,83.191 91.380,83.016 91.495 C 82.941 91.543,82.762 91.814,82.617 92.096 C 82.307 92.701,80.253 94.667,79.931 94.667 C 79.808 94.667,79.613 94.780,79.498 94.919 C 79.383 95.057,78.756 95.325,78.103 95.515 C 77.451 95.704,76.737 95.947,76.516 96.055 C 76.017 96.298,72.039 96.322,71.869 96.082 C 71.804 95.989,71.315 95.737,70.784 95.521 C 69.465 94.985,68.020 93.544,67.484 92.232 C 67.264 91.692,67.027 91.225,66.958 91.194 C 66.781 91.116,66.803 88.266,66.982 88.075 C 67.141 87.906,67.833 83.994,67.833 83.267 C 67.833 83.028,67.894 82.833,67.967 82.833 C 68.041 82.833,68.277 81.727,68.493 80.375 C 68.708 79.023,68.935 77.879,68.998 77.833 C 69.060 77.787,69.284 76.625,69.496 75.250 C 69.707 73.875,69.934 72.712,70.000 72.667 C 70.066 72.621,70.293 71.458,70.504 70.083 C 70.716 68.708,70.939 67.546,71.001 67.500 C 71.062 67.454,71.285 66.329,71.497 65.000 C 71.709 63.671,71.935 62.508,72.000 62.417 C 72.065 62.325,72.291 61.163,72.503 59.833 C 72.715 58.504,72.939 57.379,73.002 57.333 C 73.402 57.042,73.777 52.644,73.456 52.013 C 72.949 51.017,67.347 50.249,66.000 50.990 M184.607 56.570 C 184.457 56.800,184.333 57.061,184.333 57.149 C 184.333 57.237,184.235 57.409,184.116 57.530 C 183.996 57.651,183.715 58.087,183.491 58.500 C 183.267 58.913,183.037 59.288,182.980 59.333 C 182.923 59.379,182.676 59.792,182.430 60.250 C 181.838 61.355,181.230 62.373,181.028 62.602 C 180.938 62.703,180.697 63.116,180.493 63.518 C 180.289 63.921,180.067 64.287,179.999 64.333 C 179.932 64.379,179.676 64.792,179.430 65.250 C 178.846 66.340,178.231 67.372,178.035 67.594 C 177.691 67.983,177.535 68.478,177.331 69.833 C 177.214 70.612,177.066 71.287,177.004 71.333 C 176.941 71.379,176.716 72.542,176.504 73.917 C 176.293 75.292,176.067 76.454,176.002 76.500 C 175.937 76.546,175.707 77.708,175.491 79.083 C 175.275 80.458,175.051 81.621,174.994 81.667 C 174.937 81.712,174.724 82.800,174.520 84.083 C 174.316 85.367,174.085 86.567,174.006 86.750 C 173.927 86.933,173.768 87.571,173.653 88.167 C 173.357 89.687,172.648 91.158,171.675 92.266 C 171.396 92.584,171.167 92.917,171.167 93.006 C 171.167 93.094,171.067 93.167,170.946 93.167 C 170.824 93.167,170.543 93.361,170.321 93.599 C 170.098 93.837,169.579 94.227,169.167 94.466 C 168.754 94.705,168.379 94.949,168.333 95.007 C 168.215 95.159,166.159 95.833,165.815 95.833 C 165.657 95.833,165.497 95.927,165.458 96.042 C 165.407 96.195,164.782 96.250,163.096 96.250 L 160.804 96.250 160.520 96.833 C 160.364 97.154,160.033 97.715,159.785 98.080 C 159.536 98.445,159.333 98.830,159.333 98.935 C 159.333 99.040,159.222 99.218,159.086 99.331 C 158.950 99.444,158.669 99.882,158.461 100.305 C 158.253 100.728,157.952 101.207,157.792 101.370 C 157.631 101.533,157.500 101.745,157.500 101.840 C 157.500 101.935,157.237 102.403,156.917 102.879 C 156.596 103.356,156.333 103.817,156.333 103.904 C 156.333 103.991,156.172 104.233,155.976 104.443 C 155.460 104.991,155.769 105.261,157.218 105.525 C 159.913 106.016,167.667 105.615,167.667 104.985 C 167.667 104.901,167.804 104.833,167.972 104.833 C 168.432 104.833,170.500 104.155,170.500 104.004 C 170.500 103.931,170.894 103.745,171.375 103.591 C 171.856 103.437,172.325 103.217,172.417 103.102 C 172.508 102.988,172.940 102.717,173.377 102.500 C 173.813 102.283,174.293 101.970,174.444 101.803 C 174.595 101.636,174.798 101.500,174.895 101.500 C 175.101 101.500,175.237 101.376,177.307 99.307 C 179.376 97.237,179.500 97.101,179.500 96.895 C 179.500 96.798,179.636 96.595,179.803 96.444 C 179.970 96.293,180.282 95.813,180.498 95.377 C 180.713 94.940,180.946 94.545,181.015 94.498 C 181.084 94.452,181.302 94.002,181.500 93.500 C 181.698 92.998,181.915 92.548,181.982 92.502 C 182.104 92.417,182.556 91.024,182.767 90.083 C 182.829 89.808,182.938 89.508,183.009 89.417 C 183.080 89.325,183.308 88.200,183.515 86.917 C 183.722 85.633,183.941 84.546,184.003 84.500 C 184.065 84.454,184.293 83.292,184.509 81.917 C 184.725 80.542,184.949 79.379,185.007 79.333 C 185.065 79.287,185.285 78.162,185.497 76.833 C 185.709 75.504,185.938 74.342,186.006 74.250 C 186.074 74.158,186.298 72.996,186.504 71.667 C 186.710 70.337,186.939 69.173,187.013 69.078 C 187.629 68.290,187.630 60.546,187.013 59.756 C 186.940 59.661,186.744 59.145,186.578 58.609 C 186.413 58.073,186.196 57.546,186.097 57.436 C 185.998 57.327,185.802 57.016,185.661 56.745 C 185.330 56.108,184.951 56.045,184.607 56.570 M371.500 60.000 C 371.500 60.092,371.685 60.167,371.910 60.167 C 372.400 60.167,374.167 60.804,374.167 60.981 C 374.167 61.049,374.467 61.274,374.833 61.480 C 375.200 61.686,375.500 61.961,375.500 62.090 C 375.500 62.220,375.672 62.438,375.883 62.576 C 376.093 62.714,376.406 63.222,376.577 63.705 C 376.749 64.188,376.970 64.637,377.070 64.702 C 377.383 64.909,377.287 68.491,376.952 69.083 C 376.796 69.358,376.668 69.675,376.668 69.786 C 376.666 70.061,376.115 71.236,375.954 71.307 C 375.883 71.338,375.682 71.638,375.509 71.974 C 374.884 73.181,372.929 74.959,371.275 75.823 C 369.501 76.751,368.861 76.833,363.463 76.833 L 358.557 76.833 358.722 75.792 C 358.813 75.219,358.934 74.712,358.992 74.667 C 359.050 74.621,359.275 73.458,359.491 72.083 C 359.707 70.708,359.933 69.546,359.993 69.500 C 360.053 69.454,360.190 68.929,360.298 68.333 C 360.503 67.205,361.546 64.991,362.209 64.277 C 363.920 62.437,364.501 61.924,365.380 61.478 C 365.767 61.282,366.122 61.063,366.169 60.990 C 366.216 60.918,366.853 60.694,367.585 60.493 C 368.318 60.292,369.029 60.066,369.167 59.990 C 369.527 59.792,371.500 59.800,371.500 60.000 M40.364 68.395 C 41.992 68.778,43.894 70.217,44.583 71.587 C 44.767 71.952,44.970 72.290,45.035 72.339 C 45.751 72.877,45.740 78.521,45.021 79.833 C 44.945 79.971,44.710 81.208,44.497 82.583 C 44.285 83.958,44.059 85.121,43.995 85.167 C 43.932 85.212,43.827 85.625,43.762 86.083 C 43.538 87.667,42.709 89.664,41.841 90.712 C 41.182 91.508,39.086 93.500,38.907 93.500 C 38.797 93.500,38.605 93.623,38.481 93.773 C 38.151 94.171,35.730 95.264,34.700 95.481 C 33.175 95.802,18.500 95.735,18.500 95.407 C 18.500 94.913,18.890 92.750,18.994 92.667 C 19.051 92.621,19.275 91.458,19.491 90.083 C 19.707 88.708,19.937 87.546,20.001 87.500 C 20.065 87.454,20.290 86.292,20.500 84.917 C 20.710 83.542,20.935 82.379,20.999 82.333 C 21.063 82.287,21.293 81.125,21.509 79.750 C 21.725 78.375,21.949 77.212,22.007 77.167 C 22.065 77.121,22.285 75.996,22.497 74.667 C 22.709 73.337,22.937 72.175,23.003 72.083 C 23.070 71.992,23.176 71.542,23.238 71.083 C 23.301 70.625,23.431 69.781,23.527 69.208 L 23.701 68.167 31.559 68.169 C 37.529 68.171,39.644 68.225,40.364 68.395 M258.019 76.498 C 260.044 76.870,262.198 78.484,262.692 80.000 C 262.796 80.321,262.965 80.637,263.066 80.702 C 263.307 80.858,263.301 83.884,263.059 84.189 C 262.960 84.314,262.704 85.523,262.490 86.875 C 262.276 88.227,262.041 89.333,261.967 89.333 C 261.894 89.333,261.832 89.465,261.830 89.625 C 261.825 89.958,261.293 91.186,260.968 91.613 C 260.464 92.275,258.128 94.500,257.937 94.500 C 257.823 94.500,257.584 94.634,257.406 94.797 C 257.229 94.961,256.671 95.265,256.167 95.473 C 255.662 95.681,255.100 95.921,254.917 96.006 C 253.593 96.620,249.968 96.618,249.500 96.003 C 249.454 95.943,249.067 95.727,248.641 95.523 C 247.900 95.169,246.667 94.156,246.667 93.902 C 246.667 93.836,246.475 93.530,246.241 93.223 C 245.660 92.462,245.298 91.150,245.283 89.750 C 245.269 88.505,245.818 84.667,246.009 84.667 C 246.072 84.667,246.171 84.375,246.228 84.019 C 246.317 83.460,246.582 82.877,247.569 81.066 C 247.743 80.747,249.705 78.775,250.452 78.167 C 250.842 77.850,252.225 77.167,252.477 77.167 C 252.581 77.167,252.667 77.097,252.667 77.012 C 252.667 76.526,256.283 76.179,258.019 76.498 " stroke="none" fill="#fcfcfc" fill-rule="evenodd"></path><path id="path1" d="M184.403 24.167 C 184.227 24.717,184.033 25.167,183.971 25.167 C 183.910 25.167,183.768 25.448,183.656 25.792 C 183.545 26.135,183.201 26.966,182.893 27.637 C 182.585 28.308,182.333 28.937,182.333 29.034 C 182.333 29.131,182.194 29.445,182.023 29.730 C 181.852 30.016,181.572 30.662,181.399 31.167 C 181.227 31.671,181.031 32.124,180.965 32.173 C 180.898 32.223,180.733 32.577,180.598 32.960 C 180.462 33.343,180.123 34.151,179.843 34.756 C 179.563 35.361,179.333 35.936,179.333 36.034 C 179.333 36.131,179.194 36.445,179.023 36.730 C 178.852 37.016,178.572 37.662,178.399 38.167 C 178.227 38.671,178.031 39.124,177.965 39.173 C 177.898 39.223,177.736 39.569,177.604 39.941 C 177.473 40.314,177.170 41.044,176.933 41.564 C 176.695 42.084,176.500 42.557,176.500 42.614 C 176.500 42.671,176.283 43.177,176.018 43.738 C 175.753 44.299,175.441 45.075,175.325 45.463 C 175.209 45.850,175.054 46.167,174.981 46.167 C 174.909 46.167,174.777 46.410,174.688 46.708 C 174.450 47.509,174.097 48.405,173.983 48.500 C 173.928 48.546,173.727 48.996,173.536 49.500 C 173.346 50.004,173.043 50.717,172.863 51.083 C 172.683 51.450,172.441 52.069,172.325 52.458 C 172.209 52.848,172.061 53.167,171.996 53.167 C 171.931 53.167,171.708 53.673,171.500 54.292 C 171.292 54.910,171.068 55.454,171.003 55.500 C 170.937 55.546,170.727 55.996,170.536 56.500 C 170.346 57.004,170.043 57.717,169.863 58.083 C 169.683 58.450,169.441 59.069,169.325 59.458 C 169.209 59.848,169.061 60.167,168.996 60.167 C 168.931 60.167,168.708 60.673,168.500 61.292 C 168.292 61.910,168.068 62.454,168.003 62.500 C 167.937 62.546,167.727 62.996,167.536 63.500 C 167.346 64.004,167.035 64.732,166.845 65.117 C 166.655 65.502,166.500 65.894,166.500 65.988 C 166.500 66.082,166.247 66.705,165.937 67.371 C 165.627 68.038,165.317 68.771,165.248 69.000 C 165.179 69.229,165.074 69.454,165.015 69.500 C 164.956 69.546,164.770 69.921,164.601 70.333 C 164.432 70.746,164.120 71.458,163.908 71.917 C 163.696 72.375,163.430 73.069,163.318 73.458 C 163.206 73.848,163.061 74.167,162.996 74.167 C 162.931 74.167,162.708 74.673,162.500 75.292 C 162.292 75.910,162.067 76.454,162.000 76.500 C 161.933 76.546,161.703 77.071,161.489 77.667 C 161.275 78.262,160.966 78.975,160.801 79.250 C 160.636 79.525,160.501 79.847,160.501 79.966 C 160.500 80.085,160.343 80.498,160.152 80.883 C 159.961 81.268,159.661 81.988,159.486 82.482 C 159.311 82.976,159.103 83.464,159.023 83.565 C 158.943 83.667,158.712 84.199,158.510 84.748 C 158.307 85.297,158.073 85.828,157.990 85.929 C 157.906 86.030,157.733 86.408,157.606 86.770 C 157.478 87.132,157.140 87.928,156.853 88.540 C 156.567 89.152,156.333 89.741,156.333 89.848 C 156.333 89.956,156.193 90.278,156.022 90.564 C 155.850 90.849,155.573 91.458,155.405 91.917 C 155.237 92.375,154.965 92.975,154.800 93.250 C 154.636 93.525,154.501 93.852,154.501 93.976 C 154.500 94.100,154.324 94.551,154.109 94.979 C 153.895 95.407,153.584 96.168,153.418 96.670 C 153.253 97.172,153.062 97.621,152.995 97.667 C 152.928 97.712,152.749 98.115,152.598 98.562 C 152.447 99.009,152.145 99.684,151.926 100.062 C 151.708 100.440,151.435 101.069,151.321 101.458 C 151.207 101.848,151.054 102.167,150.981 102.167 C 150.909 102.167,150.777 102.410,150.688 102.708 C 150.450 103.509,150.097 104.405,149.983 104.500 C 149.928 104.546,149.716 105.032,149.512 105.581 C 149.308 106.130,149.082 106.655,149.009 106.748 C 148.935 106.841,148.706 107.404,148.500 108.000 C 148.294 108.596,148.059 109.166,147.978 109.268 C 147.897 109.370,147.682 109.887,147.500 110.417 C 147.318 110.947,147.103 111.464,147.023 111.565 C 146.943 111.667,146.718 112.184,146.523 112.714 C 146.327 113.244,146.064 113.844,145.938 114.047 C 145.812 114.250,145.569 114.829,145.398 115.333 C 145.226 115.837,145.035 116.288,144.973 116.335 C 144.911 116.381,144.693 116.906,144.489 117.501 C 144.285 118.096,144.064 118.621,143.999 118.667 C 143.933 118.712,143.710 119.237,143.502 119.833 C 143.295 120.429,143.065 120.993,142.991 121.085 C 142.918 121.178,142.693 121.703,142.490 122.252 C 142.288 122.801,142.057 123.333,141.978 123.434 C 141.825 123.628,141.000 125.828,141.000 126.041 C 141.000 126.630,142.269 125.090,142.703 123.974 C 142.769 123.805,142.882 123.667,142.955 123.667 C 143.028 123.667,143.273 123.277,143.499 122.800 C 143.726 122.324,144.081 121.750,144.289 121.526 C 144.497 121.302,144.667 121.022,144.667 120.904 C 144.667 120.787,144.765 120.591,144.884 120.470 C 145.004 120.349,145.285 119.912,145.509 119.500 C 145.733 119.087,145.962 118.712,146.018 118.667 C 146.074 118.621,146.243 118.343,146.393 118.050 C 146.543 117.757,146.891 117.184,147.166 116.776 C 147.442 116.368,147.667 115.961,147.667 115.871 C 147.667 115.781,147.778 115.615,147.914 115.502 C 148.050 115.389,148.331 114.951,148.539 114.528 C 148.747 114.106,149.048 113.626,149.208 113.463 C 149.369 113.300,149.500 113.089,149.500 112.993 C 149.500 112.898,149.762 112.430,150.083 111.954 C 150.404 111.478,150.667 111.002,150.667 110.898 C 150.667 110.793,150.778 110.615,150.914 110.502 C 151.050 110.389,151.331 109.951,151.539 109.528 C 151.747 109.106,152.048 108.626,152.208 108.463 C 152.369 108.300,152.500 108.068,152.500 107.948 C 152.500 107.828,152.635 107.584,152.799 107.406 C 152.964 107.229,153.271 106.727,153.480 106.293 C 153.690 105.858,153.926 105.462,154.005 105.414 C 154.083 105.365,154.320 104.973,154.532 104.543 C 154.744 104.112,155.048 103.626,155.208 103.463 C 155.369 103.300,155.500 103.068,155.500 102.948 C 155.500 102.828,155.635 102.584,155.799 102.406 C 155.964 102.229,156.271 101.727,156.481 101.292 C 156.691 100.856,156.914 100.500,156.976 100.500 C 157.037 100.500,157.274 100.107,157.502 99.626 C 157.730 99.145,158.048 98.620,158.208 98.459 C 158.369 98.298,158.500 98.068,158.500 97.948 C 158.500 97.828,158.635 97.584,158.799 97.406 C 158.964 97.229,159.271 96.727,159.481 96.292 C 159.691 95.856,159.914 95.500,159.976 95.500 C 160.037 95.500,160.274 95.107,160.502 94.626 C 160.730 94.145,161.048 93.620,161.208 93.459 C 161.369 93.298,161.500 93.068,161.500 92.948 C 161.500 92.828,161.635 92.584,161.799 92.406 C 161.964 92.229,162.271 91.727,162.480 91.293 C 162.690 90.858,162.926 90.462,163.005 90.414 C 163.083 90.365,163.320 89.973,163.532 89.543 C 163.744 89.112,164.048 88.626,164.208 88.463 C 164.369 88.300,164.500 88.068,164.500 87.948 C 164.500 87.828,164.635 87.584,164.799 87.406 C 164.964 87.229,165.271 86.727,165.480 86.293 C 165.690 85.858,165.926 85.462,166.005 85.414 C 166.083 85.365,166.320 84.973,166.532 84.543 C 166.744 84.112,167.048 83.626,167.208 83.463 C 167.369 83.300,167.500 83.089,167.500 82.993 C 167.500 82.898,167.762 82.430,168.083 81.954 C 168.404 81.478,168.667 81.002,168.667 80.898 C 168.667 80.793,168.778 80.615,168.914 80.502 C 169.050 80.389,169.331 79.951,169.539 79.528 C 169.747 79.106,170.048 78.626,170.208 78.463 C 170.369 78.300,170.500 78.089,170.500 77.993 C 170.500 77.898,170.762 77.430,171.083 76.954 C 171.404 76.478,171.667 76.002,171.667 75.898 C 171.667 75.793,171.778 75.615,171.914 75.502 C 172.050 75.389,172.331 74.951,172.539 74.528 C 172.747 74.106,173.048 73.626,173.208 73.463 C 173.369 73.300,173.500 73.086,173.500 72.988 C 173.500 72.890,173.729 72.477,174.009 72.070 C 174.289 71.663,174.597 71.105,174.692 70.831 C 174.788 70.557,174.927 70.333,175.001 70.333 C 175.076 70.333,175.309 69.977,175.519 69.542 C 175.729 69.106,176.036 68.605,176.201 68.427 C 176.365 68.249,176.500 68.032,176.500 67.944 C 176.500 67.856,176.762 67.389,177.083 66.906 C 177.404 66.422,177.667 65.951,177.667 65.859 C 177.667 65.766,177.765 65.591,177.884 65.470 C 178.004 65.349,178.285 64.912,178.509 64.500 C 178.733 64.087,178.962 63.712,179.018 63.667 C 179.074 63.621,179.243 63.343,179.393 63.050 C 179.543 62.757,179.891 62.184,180.166 61.776 C 180.442 61.368,180.667 60.957,180.667 60.863 C 180.667 60.768,180.765 60.591,180.884 60.470 C 181.004 60.349,181.285 59.913,181.509 59.500 C 181.733 59.087,181.962 58.712,182.018 58.667 C 182.074 58.621,182.243 58.343,182.393 58.050 C 182.543 57.757,182.891 57.184,183.166 56.776 C 183.442 56.368,183.667 55.957,183.667 55.863 C 183.667 55.768,183.765 55.591,183.884 55.470 C 184.004 55.349,184.285 54.913,184.509 54.500 C 184.733 54.087,184.960 53.712,185.013 53.667 C 185.067 53.621,185.292 53.211,185.513 52.755 C 185.735 52.299,186.048 51.793,186.208 51.630 C 186.369 51.467,186.500 51.235,186.500 51.115 C 186.500 50.995,186.635 50.751,186.799 50.573 C 186.964 50.395,187.271 49.894,187.481 49.458 C 187.691 49.023,187.914 48.667,187.976 48.667 C 188.037 48.667,188.274 48.273,188.502 47.792 C 188.730 47.311,189.048 46.786,189.208 46.626 C 189.369 46.465,189.500 46.235,189.500 46.115 C 189.500 45.995,189.635 45.751,189.799 45.573 C 189.964 45.395,190.271 44.894,190.481 44.458 C 190.691 44.023,190.914 43.667,190.976 43.667 C 191.037 43.667,191.274 43.273,191.502 42.792 C 191.730 42.311,192.048 41.786,192.208 41.626 C 192.369 41.465,192.500 41.235,192.500 41.115 C 192.500 40.995,192.635 40.751,192.799 40.573 C 192.964 40.395,193.271 39.894,193.481 39.458 C 193.691 39.023,193.914 38.667,193.976 38.667 C 194.037 38.667,194.274 38.273,194.502 37.792 C 194.730 37.311,195.048 36.786,195.208 36.626 C 195.369 36.465,195.500 36.235,195.500 36.115 C 195.500 35.995,195.635 35.751,195.799 35.573 C 195.964 35.395,196.268 34.899,196.476 34.469 C 196.683 34.039,196.908 33.664,196.976 33.636 C 197.581 33.378,197.997 31.532,197.542 31.123 C 197.099 30.727,195.647 29.706,195.083 29.396 C 194.808 29.245,194.523 29.019,194.450 28.894 C 194.377 28.769,194.242 28.667,194.151 28.667 C 194.011 28.667,192.110 27.458,191.583 27.034 C 191.492 26.960,191.084 26.716,190.678 26.492 C 190.271 26.267,189.754 25.915,189.528 25.708 C 189.303 25.502,189.028 25.333,188.918 25.333 C 188.808 25.333,188.599 25.202,188.453 25.042 C 188.307 24.881,187.905 24.600,187.560 24.417 C 187.215 24.233,186.759 23.924,186.547 23.729 C 186.204 23.413,185.493 23.167,184.924 23.167 C 184.813 23.167,184.579 23.617,184.403 24.167 " stroke="none" fill="#ec5434" fill-rule="evenodd"></path><path id="path2" d="" stroke="none" fill="#f4100c8" fill-rule="evenodd"></path><path id="path3" d="" stroke="none" fill="#f4100c8" fill-rule="evenodd"></path><path id="path4" d="" stroke="none" fill="#f4100c8" fill-rule="evenodd"></path></g></svg>